# xmcd
#
# Track frame offsets:
#	150
#	14330
#	30335
#	41577
#	55500
#	69082
#	87775
#	100607
#	115537
#	129722
#	144817
#	157805
#
# Disc length: 2306 seconds
#
# Revision: 1
# Processed by: cddbd v1.5.1PL0 Copyright (c) Steve Scherf et al.
# Submitted via: audiograbber 1.83.01
#
DISCID=7d09000c
DTITLE=Coletâneas - Ciao Amore Ciao
DYEAR=1900
DGENRE=Blues
TTITLE0=Gianni Morandi - In Ginocchio Date
TTITLE1=Edoardo Vianello - O Mio Signore
TTITLE2=Rita Pavone - Fortissimo
TTITLE3=Luigi Tenco - Ciao Amore, Ciao
TTITLE4=Mina - Una Casa In Cima Al Mondo
TTITLE5=Riccardo Cocciante - Primavera
TTITLE6=Carmelo Pagano - L'Amore Se Ne Va
TTITLE7=Pepino Di Capri - Ancora Con Te (Outra Vez)
TTITLE8=Nico Fidenco - A Casa Di Irene
TTITLE9=Fausto Leali - A Chi (Hurt)
TTITLE10=Iva Zanicchi - Non Pensare A Me
TTITLE11=Wess and Dori Ghessi - Tu Nella Mia Vita
EXTD=
EXTT0=
EXTT1=
EXTT2=
EXTT3=
EXTT4=
EXTT5=
EXTT6=
EXTT7=
EXTT8=
EXTT9=
EXTT10=
EXTT11=
PLAYORDER=
